<svg xmlns="http://www.w3.org/2000/svg" width="50.111" height="38.583" viewBox="0 0 50.111 38.583">
    <g data-name="그룹 5011">
        <g data-name="그룹 5002">
            <path data-name="패스 5843" d="m462.615 4370.453-8.846 7.875h-7.676a2.972 2.972 0 0 0-2.972 2.972v11.882a2.972 2.972 0 0 0 2.972 2.972h7.676l8.846 7.875a2.972 2.972 0 0 0 4.949-2.22v-29.136a2.972 2.972 0 0 0-4.949-2.22z" style="fill:#047068" transform="translate(-441.47 -4367.95)"/>
            <path data-name="패스 5844" d="M464.574 4406.441a4.577 4.577 0 0 1-3.056-1.179l-8.378-7.457h-7.046a4.629 4.629 0 0 1-4.624-4.623V4381.3a4.629 4.629 0 0 1 4.624-4.623h7.046l8.378-7.457a4.623 4.623 0 0 1 7.7 3.453v29.136a4.568 4.568 0 0 1-2.731 4.218 4.65 4.65 0 0 1-1.913.414zm-18.48-26.463a1.323 1.323 0 0 0-1.323 1.322v11.882a1.323 1.323 0 0 0 1.323 1.322h8.3l9.315 8.293a1.305 1.305 0 0 0 1.42.219 1.285 1.285 0 0 0 .781-1.207v-29.136a1.3 1.3 0 0 0-.781-1.206 1.28 1.28 0 0 0-1.42.218l-9.315 8.293z" style="fill:#fff" transform="translate(-441.47 -4367.95)"/>
        </g>
        <g data-name="그룹 5006">
            <g data-name="그룹 5005">
                <g data-name="그룹 5003">
                    <path data-name="패스 5845" d="M476.051 4399.035a3.435 3.435 0 0 1-2.429-5.864 8.387 8.387 0 0 0 0-11.86 3.435 3.435 0 1 1 4.859-4.857 15.256 15.256 0 0 1 0 21.575 3.416 3.416 0 0 1-2.43 1.006z" style="fill:#047068" transform="translate(-441.47 -4367.95)"/>
                </g>
                <g data-name="그룹 5004">
                    <path data-name="패스 5846" d="M476.051 4377.1a1.784 1.784 0 0 1 1.263.523 13.606 13.606 0 0 1 0 19.242 1.785 1.785 0 1 1-2.525-2.524 10.037 10.037 0 0 0 0-14.193 1.785 1.785 0 0 1 1.262-3.048m0-3.3a5.086 5.086 0 0 0-3.6 8.683 6.737 6.737 0 0 1 0 9.525 5.086 5.086 0 1 0 7.193 7.192 16.906 16.906 0 0 0 0-23.91 5.054 5.054 0 0 0-3.6-1.49z" style="fill:#fff" transform="translate(-441.47 -4367.95)"/>
                </g>
            </g>
        </g>
        <g data-name="그룹 5010">
            <g data-name="그룹 5009">
                <g data-name="그룹 5007">
                    <path data-name="패스 5847" d="M480.611 4404.882a3.436 3.436 0 0 1-2.43-5.865 16.654 16.654 0 0 0 0-23.551 3.436 3.436 0 1 1 4.859-4.859 23.524 23.524 0 0 1 0 33.269 3.412 3.412 0 0 1-2.429 1.006z" style="fill:#047068" transform="translate(-441.47 -4367.95)"/>
                </g>
                <g data-name="그룹 5008">
                    <path data-name="패스 5848" d="M480.611 4371.251a1.779 1.779 0 0 1 1.262.522 21.875 21.875 0 0 1 0 30.936 1.785 1.785 0 1 1-2.524-2.525 18.3 18.3 0 0 0 0-25.886 1.785 1.785 0 0 1 1.262-3.047m0-3.3a5.085 5.085 0 0 0-3.6 8.682 15 15 0 0 1 0 21.218 5.086 5.086 0 1 0 7.193 7.193 25.177 25.177 0 0 0 0-35.6 5.052 5.052 0 0 0-3.6-1.489z" style="fill:#fff" transform="translate(-441.47 -4367.95)"/>
                </g>
            </g>
        </g>
    </g>
</svg>
