<svg xmlns="http://www.w3.org/2000/svg" width="57.382" height="45.991" viewBox="0 0 57.382 45.991">
    <g data-name="그룹 6533">
        <path data-name="패스 7631" d="M854.239 89.51h-4.473a11.57 11.57 0 1 0-6.336 0h-4.36a13.433 13.433 0 0 0-13.409 13.3v5.99h41.874v-5.994a13.336 13.336 0 0 0-13.296-13.296z" style="fill:#9adcff;stroke:#fff;stroke-linecap:round;stroke-linejoin:round;stroke-width:4px" transform="translate(-823.661 -64.809)"/>
        <g data-name="그룹 6532">
            <path data-name="패스 7632" d="M856.158 85.094h3.506a9.268 9.268 0 0 1-2.8-1.338 11.675 11.675 0 0 1-.827 1.344c.043 0 .081-.006.121-.006z" style="fill:#9adcff;stroke:#fff;stroke-linecap:round;stroke-linejoin:round;stroke-width:4px" transform="translate(-823.661 -64.809)"/>
            <path data-name="패스 7633" d="M879.043 95.784a10.721 10.721 0 0 0-10.69-10.69h-3.6a9.3 9.3 0 1 0-9.836-14.718 11.542 11.542 0 0 1 1.947 13.38 9.268 9.268 0 0 0 2.8 1.338h-3.506c-.04 0-.078 0-.117.006a11.581 11.581 0 0 1-6.265 4.443h4.473a13.336 13.336 0 0 1 13.092 11.06h11.7z" style="fill:#9adcff;stroke:#fff;stroke-linecap:round;stroke-linejoin:round;stroke-width:4px" transform="translate(-823.661 -64.809)"/>
        </g>
    </g>
</svg>
