<svg xmlns="http://www.w3.org/2000/svg" width="46.861" height="46.868" viewBox="0 0 46.861 46.868">
    <g data-name="패스 7634" style="fill:#11aa8d;stroke-linecap:round;stroke-linejoin:round">
        <path d="M918.92 109.146h-10.893v-6.636a15.689 15.689 0 0 1-1.164-.482l-3.292 3.292-1.414 1.415-1.414-1.415-4.874-4.875-1.414-1.414 1.414-1.414 3.29-3.289a15.73 15.73 0 0 1-.487-1.173h-6.629V82.262h6.629c.145-.396.307-.786.483-1.168l-3.286-3.287-1.414-1.414 1.414-1.414 4.874-4.875 1.414-1.414 1.414 1.414 3.288 3.286c.382-.176.772-.338 1.168-.483v-6.629h10.893v6.629c.389.143.771.3 1.147.473l3.277-3.276 1.414-1.414 1.414 1.414 4.874 4.875 1.414 1.414-1.414 1.414-3.265 3.265c.181.39.346.787.494 1.19h6.629v10.893h-6.63c-.148.405-.314.804-.495 1.195l3.267 3.267 1.414 1.414-1.414 1.414-4.874 4.875-1.414 1.415-1.414-1.415-3.282-3.282a15.7 15.7 0 0 1-1.142.472v6.636zm-5.447-26.869a5.437 5.437 0 0 0-5.431 5.431 5.438 5.438 0 0 0 5.431 5.432 5.438 5.438 0 0 0 5.432-5.432 5.438 5.438 0 0 0-5.432-5.431z" style="stroke:none" transform="translate(-890.043 -64.278)"/>
        <path d="M916.92 107.146v-6.105a13.68 13.68 0 0 0 3.52-1.453l4.318 4.318 4.874-4.875-4.308-4.308a13.672 13.672 0 0 0 1.482-3.568h6.098v-6.893h-6.098a13.688 13.688 0 0 0-1.479-3.564l4.305-4.305-4.874-4.875-4.314 4.313a13.661 13.661 0 0 0-3.524-1.455v-6.098h-6.893v6.098c-1.261.325-2.45.821-3.544 1.467l-4.326-4.325-4.874 4.875 4.325 4.325a13.672 13.672 0 0 0-1.467 3.544h-6.098v6.893h6.098a13.71 13.71 0 0 0 1.47 3.549l-4.328 4.327 4.874 4.875 4.33-4.33c1.093.645 2.28 1.14 3.54 1.465v6.105h6.893m-3.447-26.869a7.431 7.431 0 1 1 0 14.863 7.431 7.431 0 0 1 0-14.863m3.447 30.869h-6.893a4 4 0 0 1-4-4v-1.453l-1.042 1.041a4 4 0 0 1-5.657 0l-4.874-4.875a4 4 0 0 1 0-5.657l1.048-1.047h-1.459a4 4 0 0 1-4-4v-6.893a4 4 0 0 1 4-4h1.452l-1.04-1.04a4 4 0 0 1 0-5.657l4.873-4.875a4 4 0 0 1 5.657 0l1.042 1.04v-1.452a4 4 0 0 1 4-4h6.893a4 4 0 0 1 4 4v1.42l1.01-1.009a4 4 0 0 1 5.657 0l4.874 4.876a4 4 0 0 1 0 5.656l-1.041 1.041h1.484a4 4 0 0 1 4 4v6.893a4 4 0 0 1-4 4h-1.491l1.047 1.048a4 4 0 0 1 0 5.656l-4.873 4.875a4 4 0 0 1-5.657 0l-1.01-1.01v1.422a4 4 0 0 1-4 4zm-3.447-26.869a3.435 3.435 0 0 0-3.431 3.431 3.435 3.435 0 0 0 3.431 3.432 3.436 3.436 0 0 0 3.432-3.432 3.435 3.435 0 0 0-3.432-3.431z" style="fill:#fff;stroke:none" transform="translate(-890.043 -64.278)"/>
    </g>
</svg>
