<svg xmlns="http://www.w3.org/2000/svg" width="43.459" height="52.455" viewBox="0 0 43.459 52.455">
    <g data-name="그룹 5904">
        <g data-name="그룹 5898">
            <path data-name="패스 6874" d="M417.253 2318.4c4.307-7.489 14.687-25.483 17.008-29.507a1.055 1.055 0 0 1 1.459-.233l18.739 10.819s-12.624 21.848-17.515 30.289c-1.049 1.811-3.7 2.235-5.931.949l-11.617-6.707c-2.227-1.285-3.187-3.795-2.143-5.61z" style="fill:#f9f9f9" transform="translate(-415.825 -2280.011)"/>
            <path data-name="패스 6875" d="M455.435 2299.218a1.013 1.013 0 0 1-.1.767c-.127.219-12.68 21.945-17.516 30.291-1.326 2.288-4.6 2.879-7.31 1.317l-11.617-6.707c-2.7-1.562-3.833-4.7-2.514-6.989l.876.5-.876-.5c4.007-6.966 13.23-22.956 17.009-29.507a1.865 1.865 0 0 1 1.335-.9 2.3 2.3 0 0 1 1.5.292l18.739 10.819a1.015 1.015 0 0 1 .474.617zm-37.307 19.682c-.764 1.328.032 3.227 1.773 4.233l11.617 6.706c1.742 1.006 3.784.746 4.552-.58 4.279-7.386 14.6-25.253 17.009-29.414l-17.864-10.314a.358.358 0 0 0-.131-.046c-3.811 6.615-12.967 22.486-16.956 29.415z" style="fill:#231815" transform="translate(-415.825 -2280.011)"/>
        </g>
        <g data-name="그룹 5900">
            <g data-name="그룹 5899">
                <path data-name="패스 6876" d="m432.3 2331.26-3.436-1.984c2.228 1.287 4.882.862 5.931-.948l3.536-6.11 1.564.9-5.129 8.882a5.442 5.442 0 0 1-2.466-.74z" style="fill:#e2e2e2" transform="translate(-415.825 -2280.011)"/>
            </g>
        </g>
        <g data-name="그룹 5901">
            <path data-name="패스 6877" d="M455.435 2299.218a1.013 1.013 0 0 1-.1.767c-.127.219-12.68 21.945-17.516 30.291-1.326 2.288-4.6 2.879-7.31 1.317l-11.617-6.707c-2.7-1.562-3.833-4.7-2.514-6.989l.876.5-.876-.5c4.007-6.966 13.23-22.956 17.009-29.507a1.865 1.865 0 0 1 1.335-.9 2.3 2.3 0 0 1 1.5.292l18.739 10.819a1.015 1.015 0 0 1 .474.617zm-37.307 19.682c-.764 1.328.032 3.227 1.773 4.233l11.617 6.706c1.742 1.006 3.784.746 4.552-.58 4.279-7.386 14.6-25.253 17.009-29.414l-17.864-10.314a.358.358 0 0 0-.131-.046c-3.811 6.615-12.967 22.486-16.956 29.415z" style="fill:#231815" transform="translate(-415.825 -2280.011)"/>
        </g>
        <g data-name="그룹 5902">
            <path data-name="패스 6878" d="M420.438 2312.908a2.085 2.085 0 0 1 .161-.35l17.714-30.683a1.71 1.71 0 0 1 2.335-.625l16.772 9.683a1.709 1.709 0 0 1 .626 2.335l-17.715 30.683a2.213 2.213 0 0 1-.222.314z" style="fill:#9ce1ff" transform="translate(-415.825 -2280.011)"/>
            <path data-name="패스 6879" d="m458.921 2293.773-17.715 30.683a3.251 3.251 0 0 1-.326.461l-.545.644-21.133-12.2.285-.794a3.169 3.169 0 0 1 .237-.513l17.715-30.683a2.723 2.723 0 0 1 3.715-1l16.771 9.683a2.723 2.723 0 0 1 .996 3.719zM439.77 2322.9l17.4-30.14a.7.7 0 0 0-.256-.956l-16.772-9.683a.7.7 0 0 0-.955.256l-17.4 30.14z" style="fill:#231815" transform="translate(-415.825 -2280.011)"/>
        </g>
        <g data-name="그룹 5903">
            <path data-name="패스 6880" d="M423.862 2306.977a.856.856 0 0 1 .091-.228l11.791-20.424 19.732 11.393-11.791 20.423a.891.891 0 0 1-.153.193z" style="fill:#29abe2" transform="translate(-415.825 -2280.011)"/>
            <path data-name="패스 6881" d="M444.56 2318.646a1.947 1.947 0 0 1-.324.413l-.548.531-20.988-12.12.186-.74a1.892 1.892 0 0 1 .2-.486l12.3-21.3 21.482 12.4zm-19.349-12.056 17.983 10.382 10.9-18.885-17.983-10.382z" style="fill:#231815" transform="translate(-415.825 -2280.011)"/>
        </g>
    </g>
</svg>
