<svg xmlns="http://www.w3.org/2000/svg" width="47.079" height="57.119" viewBox="0 0 47.079 57.119">
    <g data-name="그룹 5884">
        <g data-name="그룹 5874">
            <path data-name="패스 6850" d="m272.383 2310.274 3.913 2.279 4.487 2.615 5.619 3.167 2.969 1.84.515 1.592-.063 1.847-.733 3.238-1.629 2.822-2.457 3.3-2 .545-2.877 1.3-3.553.719-3.7-.446-5.993.541-2.877-1.482-3.143-1.263-1.53-3.507 2.036-2.339 3.429-4.957 3.074-6.4 2.935-4.479 1.574-.937" style="fill:#6d6d6d" transform="translate(-257.804 -2278.79)"/>
        </g>
        <g data-name="그룹 5875">
            <path data-name="패스 6851" d="M282.913 2315.294a17.6 17.6 0 0 1-11.489 19.086l6.348.283 4.1-1.9 3.216-1.823 2.983-3.265 1.888-3.98.233-3.585-5.136-3.963-1.877-.654z" style="fill:#474747" transform="translate(-257.804 -2278.79)"/>
        </g>
        <g data-name="그룹 5876">
            <path data-name="패스 6852" d="m294.574 2281.407-3.46 2.3-2.605 2.72-1.5 2.6-1.723 1-2.538 3.242-1.54 2.667-2.06 2.2-1.586 2.832-.826 1.362.489 1.031 6.735 3.888 5.514 3.463 5.037 2.249 2.738-4.742 2.013-4.707 1.939-4.8.923-2.711.963-3.493.908-3.49-.137-3.51-.491-2.643-1.964-2.553-1.852-.523-3.541.838-1.432.765" style="fill:#f6ffa4" transform="translate(-257.804 -2278.79)"/>
        </g>
        <g data-name="그룹 5877">
            <path data-name="패스 6853" d="M301.213 2280.767s.021 14.74-13.751 28.516l2.009 1.44 2.732 1.3 1.444.833.861.119 1.556-2.866 1.718-3.4 1.844-2.6.955-3.754 1.24-3.409.582-1.955.352-1.721.284-2.585.765-2.49-.534-2.324-.754-4.089z" style="fill:#dee293" transform="translate(-257.804 -2278.79)"/>
        </g>
        <g data-name="그룹 5878">
            <path data-name="패스 6854" d="m290.589 2320.052-18.206-10.488a1.771 1.771 0 0 1-.617-2.422l2.091-3.621a1.776 1.776 0 0 1 2.408-.679l18.206 10.488a1.773 1.773 0 0 1 .618 2.423l-2.091 3.62a1.776 1.776 0 0 1-2.409.679z" style="fill:#d6d6d6" transform="translate(-257.804 -2278.79)"/>
            <path data-name="패스 6855" d="M271.877 2310.438a2.711 2.711 0 0 1-1.269-1.661 2.8 2.8 0 0 1 .283-2.14l2.091-3.621a2.784 2.784 0 0 1 3.787-1.049l18.206 10.488a2.71 2.71 0 0 1 1.268 1.661 2.8 2.8 0 0 1-.283 2.14l-2.091 3.621a2.785 2.785 0 0 1-3.787 1.049l-18.206-10.488zm22.09 3.768-18.206-10.488a.772.772 0 0 0-1.03.308l-2.091 3.621a.8.8 0 0 0-.081.606.708.708 0 0 0 .328.436l18.206 10.488a.771.771 0 0 0 1.03-.309l2.091-3.621a.8.8 0 0 0 .081-.606.709.709 0 0 0-.328-.435z" style="fill:#231815" transform="translate(-257.804 -2278.79)"/>
        </g>
        <g data-name="그룹 5879">
            <path data-name="패스 6856" d="M275.883 2303.8a1.01 1.01 0 0 1-.365-1.388c10.055-17.03 20.659-26.255 26.385-22.956l-.505.875.505-.875c5.722 3.3 3.035 17.088-6.688 34.306a1.01 1.01 0 0 1-1.384.379l-17.948-10.341zm25.017-22.6c-3.736-2.152-13.054 4.622-23.114 21.356l16.178 9.32c9.457-17.07 10.665-28.516 6.936-30.676z" style="fill:#231815" transform="translate(-257.804 -2278.79)"/>
        </g>
        <g data-name="그룹 5881">
            <path data-name="패스 6858" d="M260.33 2333.033a5.461 5.461 0 0 1-2.145-1.984c-.568-1.047-.781-2.712 1.424-4.7 3.96-3.571 6.272-9.332 6.295-9.39l.008-.018c1.841-4.4 3.908-8.647 7.114-8.1l.181.03 17.453 10.175.078.469a13.075 13.075 0 0 1-2.557 10.006 15.515 15.515 0 0 1-10.17 6.1c-2.921.729-12.957.139-17.681-2.588zm7.449-15.321a30.54 30.54 0 0 1-6.817 10.137c-1.487 1.341-1.121 2.015-1 2.237.694 1.281 3.809 2.523 8.128 3.241 4.123.686 8.054.706 9.472.328l.066-.017.068-.009a13.637 13.637 0 0 0 8.867-5.316 11.027 11.027 0 0 0 2.249-8l-16.278-9.49c-1.846-.052-3.8 4.609-4.755 6.889z" style="fill:#231815" transform="translate(-257.804 -2278.79)"/>
        </g>
        <g data-name="그룹 5882">
            <path data-name="패스 6859" d="M258.969 2330.5a1.01 1.01 0 0 1 .507-1.886c.075 0 6.613-.031 7.968-3.538a1.01 1.01 0 0 1 1.884.728c-1.856 4.8-9.533 4.832-9.859 4.831a1.008 1.008 0 0 1-.5-.135z" style="fill:#231815" transform="translate(-257.804 -2278.79)"/>
        </g>
        <g data-name="그룹 5883">
            <path data-name="패스 6860" d="M258.868 2331.645a1.01 1.01 0 0 1 .65-1.875 24.115 24.115 0 0 0 12.451-1.709 1.01 1.01 0 0 1 .868 1.824 25.854 25.854 0 0 1-13.609 1.884 1.013 1.013 0 0 1-.36-.124z" style="fill:#231815" transform="translate(-257.804 -2278.79)"/>
        </g>
    </g>
</svg>
