<svg xmlns="http://www.w3.org/2000/svg" width="44.862" height="62.857" viewBox="0 0 44.862 62.857">
    <g data-name="그룹 5913">
        <g data-name="그룹 5910">
            <g data-name="그룹 5905" transform="translate(-336.452 -2275.317)">
                <rect data-name="사각형 52695" width="19.474" height="15.931" rx="2.338" transform="rotate(29.861 -4084.649 1820.788)" style="fill:#e292ff"/>
                <path data-name="패스 6882" d="m380.871 2287.7-5.6 9.76a3.352 3.352 0 0 1-4.571 1.237l-12.832-7.368a3.352 3.352 0 0 1-1.237-4.571l5.6-9.76a3.352 3.352 0 0 1 4.571-1.236l12.833 7.367a3.353 3.353 0 0 1 1.236 4.571zm-9.169 9.245a1.33 1.33 0 0 0 1.813-.491l5.6-9.76a1.331 1.331 0 0 0-.491-1.813l-12.833-7.367a1.329 1.329 0 0 0-1.813.49l-5.6 9.76a1.328 1.328 0 0 0 .491 1.813z" style="fill:#231815"/>
            </g>
            <g data-name="그룹 5906">
                <path data-name="패스 6883" d="M339.356 2315.545a2.693 2.693 0 0 1 .186-.4l20.406-35.545a1.244 1.244 0 0 1 1.7-.459l17.6 10.106a1.243 1.243 0 0 1 .459 1.7l-20.407 35.546a2.792 2.792 0 0 1-.248.36z" style="fill:#f9f9f9" transform="translate(-336.452 -2275.317)"/>
                <path data-name="패스 6884" d="M380.584 2291.451 360.178 2327a3.769 3.769 0 0 1-.338.491 1.009 1.009 0 0 1-1.289.242l-19.7-11.308a1.01 1.01 0 0 1-.441-1.236 3.707 3.707 0 0 1 .254-.539l20.406-35.545a2.256 2.256 0 0 1 3.076-.832l17.6 10.106a2.255 2.255 0 0 1 .838 3.072zm-21.872 34.041 20.12-35.047a.233.233 0 0 0-.086-.318l-17.6-10.106a.234.234 0 0 0-.319.086l-20.12 35.047z" style="fill:#231815" transform="translate(-336.452 -2275.317)"/>
            </g>
            <g data-name="그룹 5907">
                <path data-name="패스 6885" d="m358.487 2327.244-8.1 3.344-5.681 2.344a2.664 2.664 0 0 1-3.359-1.929l-.84-6.087-1.2-8.685a1.568 1.568 0 0 1 .051-.686l19.7 11.308a1.579 1.579 0 0 1-.571.391z" style="fill:#f9f9f9" transform="translate(-336.452 -2275.317)"/>
                <path data-name="패스 6886" d="M360.052 2326.7a1.014 1.014 0 0 1-.254.838 2.574 2.574 0 0 1-.926.64l-13.784 5.688a3.666 3.666 0 0 1-4.746-2.725l-2.038-14.772a2.584 2.584 0 0 1 .087-1.123 1.01 1.01 0 0 1 1.468-.577l19.7 11.308a1.012 1.012 0 0 1 .493.723zm-17.709 4.166a1.686 1.686 0 0 0 1.974 1.133l12.608-5.2-16.446-9.442z" style="fill:#231815" transform="translate(-336.452 -2275.317)"/>
            </g>
            <g data-name="그룹 5908">
                <path data-name="패스 6887" d="M339.342 2315.569a.108.108 0 0 1 .006-.082l3.577-6.232 19.76 11.344-3.577 6.233a.117.117 0 0 1-.068.046z" style="fill:#e292ff" transform="translate(-336.452 -2275.317)"/>
                <path data-name="패스 6888" d="m363.561 2321.1-3.577 6.232a1.119 1.119 0 0 1-.646.509 1.006 1.006 0 0 1-.8-.089l-19.7-11.309a1.008 1.008 0 0 1-.481-.647 1.115 1.115 0 0 1 .114-.814l3.577-6.232a1.01 1.01 0 0 1 1.379-.373l19.76 11.345a1.008 1.008 0 0 1 .374 1.378zm-22.872-5.924 18.009 10.339 2.609-4.544-18.007-10.337z" style="fill:#231815" transform="translate(-336.452 -2275.317)"/>
            </g>
            <g data-name="그룹 5909">
                <path data-name="패스 6889" d="m346.932 2332-5.911-3.393-3.472 6.048a.942.942 0 0 0 .739 1.268l4.968 1.209a.8.8 0 0 0 .913-.32z" style="fill:#e292ff" transform="translate(-336.452 -2275.317)"/>
                <path data-name="패스 6890" d="m347.808 2332.5-2.763 4.812a1.8 1.8 0 0 1-2.028.8l-4.968-1.209a2.117 2.117 0 0 1-1.447-1.2 1.724 1.724 0 0 1 .071-1.549l3.472-6.048a1.01 1.01 0 0 1 1.379-.373l5.911 3.393a1.012 1.012 0 0 1 .373 1.374zm-9.261 2.443 4.851 1.18 2.155-3.753-4.158-2.387z" style="fill:#231815" transform="translate(-336.452 -2275.317)"/>
            </g>
        </g>
        <g data-name="그룹 5911">
            <path data-name="사각형 52696" d="M0 0h4.163a.469.469 0 0 1 .469.469v32.979H0V0z" transform="rotate(29.861 -4.346 78.388)" style="fill:#d6d6d6"/>
        </g>
        <g data-name="그룹 5912">
            <path data-name="사각형 52697" transform="rotate(-150.139 17.814 22.13)" style="fill:#b97ad3" d="M0 0h4.675v5.229H0z"/>
        </g>
    </g>
</svg>
