<svg xmlns="http://www.w3.org/2000/svg" width="43.082" height="62.013" viewBox="0 0 43.082 62.013">
  <g id="그룹_5873" data-name="그룹 5873" transform="translate(-106.874 -2276.343)">
    <path id="패스_6829" data-name="패스 6829" d="M148,2292.279a7.212,7.212,0,0,0-2.694-9.8l-7.148-4.127a7.265,7.265,0,0,0-9.891,2.539l-1.61,2.789,19.733,11.393Z" fill="#ff7791"/>
    <g id="그룹_5860" data-name="그룹 5860">
      <path id="패스_6830" data-name="패스 6830" d="M145.953,2294.761l1.4-2.9a7.264,7.264,0,0,0-3.481-9.6l-7.438-3.576A17.563,17.563,0,0,1,145.953,2294.761Z" fill="#db657c"/>
    </g>
    <path id="패스_6831" data-name="패스 6831" d="M138.664,2277.473l7.148,4.126a8.211,8.211,0,0,1,3.064,11.185l-1.611,2.789a1.009,1.009,0,0,1-1.379.369l-19.733-11.392a1.01,1.01,0,0,1-.369-1.38l1.61-2.789A8.239,8.239,0,0,1,138.664,2277.473Zm7.357,16.215,1.105-1.914a6.187,6.187,0,0,0-2.324-8.425l-7.148-4.127a6.219,6.219,0,0,0-8.511,2.169l-1.105,1.914Z" fill="#231815"/>
    <g id="그룹_5861" data-name="그룹 5861">
      <path id="패스_6832" data-name="패스 6832" d="M108.042,2315.991l1.2.694,1.234.712,1.233.712,1.233.712,1.233.712,1.234.712,1.233.712,1.233.712,1.234.712,1.233.712,1.233.712,1.233.712,1.234.712,1.233.712,1.233.712,1.2.695a1.571,1.571,0,0,0,.192-.263l15.706-27.2-1.233-.712-1.234-.712-1.233-.712-1.233-.712-1.234-.712-1.233-.712-1.233-.712-1.233-.712-1.234-.712-1.233-.712-1.233-.712-1.233-.712-1.234-.712-1.233-.712-1.233-.712-1.234-.712-15.705,27.2A1.631,1.631,0,0,0,108.042,2315.991Z" fill="#ffe77b"/>
      <path id="패스_6833" data-name="패스 6833" d="M124.384,2287.615l19.732,11.392a1.011,1.011,0,0,1,.37,1.38l-15.706,27.2a2.466,2.466,0,0,1-.318.434,1.009,1.009,0,0,1-1.254.2l-19.671-11.357a1.009,1.009,0,0,1-.456-1.186,2.632,2.632,0,0,1,.217-.492l15.706-27.2A1.01,1.01,0,0,1,124.384,2287.615Zm17.847,12.637-17.983-10.382L109.391,2315.6l17.983,10.383Z" fill="#231815"/>
    </g>
    <g id="그룹_5865" data-name="그룹 5865">
      <g id="그룹_5862" data-name="그룹 5862">
        <path id="패스_6834" data-name="패스 6834" d="M115.411,2320.245l1.233.712,1.233.712,1.233.712,1.233.712,1.233.712,15.867-27.483-1.233-.712-1.233-.712-1.233-.712-1.233-.712-1.233-.712-1.233-.712-15.867,27.483Z" fill="#ffe77b"/>
        <path id="패스_6835" data-name="패스 6835" d="M130.55,2291.175l7.4,4.272a1.01,1.01,0,0,1,.37,1.38l-15.867,27.483a1.01,1.01,0,0,1-1.38.37l-7.4-4.272a1.01,1.01,0,0,1-.369-1.38l15.867-27.483A1.01,1.01,0,0,1,130.55,2291.175Zm5.515,5.517-5.65-3.262-14.858,25.733,5.65,3.262Z" fill="#231815"/>
      </g>
      <g id="그룹_5863" data-name="그룹 5863">
        <path id="패스_6836" data-name="패스 6836" d="M108.042,2315.991l1.2.694,1.234.712,1.233.712,1.233.712,1.233.712,15.868-27.483-1.233-.712-1.234-.712-1.233-.712-1.233-.712-1.234-.712-15.705,27.2A1.631,1.631,0,0,0,108.042,2315.991Z" fill="#ffe77b"/>
        <path id="패스_6837" data-name="패스 6837" d="M124.384,2287.615l6.166,3.56a1.011,1.011,0,0,1,.37,1.38l-15.868,27.483a1.01,1.01,0,0,1-1.38.37l-6.135-3.543a1.009,1.009,0,0,1-.456-1.186,2.632,2.632,0,0,1,.217-.492l15.706-27.2A1.01,1.01,0,0,1,124.384,2287.615Zm4.281,4.8-4.417-2.55L109.391,2315.6l4.417,2.55Z" fill="#231815"/>
      </g>
      <g id="그룹_5864" data-name="그룹 5864">
        <path id="패스_6838" data-name="패스 6838" d="M122.81,2324.517l1.234.712,1.233.712,1.233.712,1.2.695a1.571,1.571,0,0,0,.192-.263l15.706-27.2-1.233-.712-1.234-.712-1.233-.712-1.233-.712-1.234-.712L121.577,2323.8Z" fill="#ffe77b"/>
        <path id="패스_6839" data-name="패스 6839" d="M137.949,2295.447l6.167,3.56a1.011,1.011,0,0,1,.37,1.38l-15.706,27.2a2.466,2.466,0,0,1-.318.434,1.009,1.009,0,0,1-1.254.2l-6.136-3.542a1.01,1.01,0,0,1-.37-1.38l15.868-27.483A1.009,1.009,0,0,1,137.949,2295.447Zm4.282,4.8-4.417-2.55-14.857,25.733,4.417,2.551Z" fill="#231815"/>
      </g>
    </g>
    <g id="그룹_5866" data-name="그룹 5866">
      <path id="패스_6840" data-name="패스 6840" d="M107.884,2316.86V2335.1a2.237,2.237,0,0,0,3.355,1.937l6.511-3.759,9.289-5.363a2.5,2.5,0,0,0,.674-.571l-19.671-11.357A2.5,2.5,0,0,0,107.884,2316.86Z" fill="#ffd199"/>
      <path id="패스_6841" data-name="패스 6841" d="M108.547,2315.116l19.671,11.357a1.009,1.009,0,0,1,.274,1.517,3.494,3.494,0,0,1-.948.8l-15.8,9.122a3.247,3.247,0,0,1-4.87-2.812V2316.86a3.463,3.463,0,0,1,.222-1.222,1.009,1.009,0,0,1,1.451-.522Zm17.3,12.323-16.957-9.79V2335.1a1.227,1.227,0,0,0,1.84,1.062Z" fill="#231815"/>
    </g>
    <g id="그룹_5868" data-name="그룹 5868">
      <g id="그룹_5867" data-name="그룹 5867">
        <path id="패스_6842" data-name="패스 6842" d="M107.884,2335.1a2.237,2.237,0,0,0,3.355,1.937l4.478-2.585-7.833-4.522Z" fill="#232323"/>
        <path id="패스_6843" data-name="패스 6843" d="M108.389,2329.059l7.833,4.522a1.011,1.011,0,0,1,0,1.75l-4.478,2.585a3.247,3.247,0,0,1-4.87-2.812h0v-5.17a1.01,1.01,0,0,1,1.515-.875Zm5.308,5.4-4.8-2.773v3.421a1.227,1.227,0,0,0,1.84,1.062Z" fill="#231815"/>
      </g>
    </g>
    <g id="그룹_5872" data-name="그룹 5872">
      <g id="그룹_5869" data-name="그룹 5869">
        <path id="패스_6844" data-name="패스 6844" d="M126.364,2284.184l-.294.509-.294.509-.294.509-.294.509,19.7,11.375.294-.509.294-.509.294-.509.294-.509.294-.509-19.7-11.375Z" fill="#d3d3d3"/>
        <path id="패스_6845" data-name="패스 6845" d="M127.163,2282.8l19.7,11.375a1.01,1.01,0,0,1,.369,1.38l-1.469,2.545a1.01,1.01,0,0,1-1.38.37l-19.7-11.375a1.008,1.008,0,0,1-.37-1.379l1.47-2.546A1.009,1.009,0,0,1,127.163,2282.8Zm17.817,12.619-17.952-10.364-.46.8,17.952,10.364Z" fill="#231815"/>
      </g>
      <g id="그룹_5870" data-name="그룹 5870">
        <path id="패스_6846" data-name="패스 6846" d="M123.425,2289.275l-.294.509-.294.509-.294.509-.294.509,19.7,11.375.294-.509.294-.509.294-.509.294-.509.294-.509-19.7-11.375Z" fill="#d3d3d3"/>
        <path id="패스_6847" data-name="패스 6847" d="M124.224,2287.891l19.7,11.375a1.009,1.009,0,0,1,.37,1.38l-1.47,2.545a1.008,1.008,0,0,1-1.379.37l-19.7-11.374a1.011,1.011,0,0,1-.37-1.38l1.47-2.546A1.01,1.01,0,0,1,124.224,2287.891Zm17.817,12.619-17.952-10.364-.46.8,17.952,10.365Z" fill="#231815"/>
      </g>
      <g id="그룹_5871" data-name="그룹 5871">
        <path id="패스_6848" data-name="패스 6848" d="M124.895,2286.73l-.294.509-.294.509-.294.509-.294.509,19.7,11.375.294-.509.294-.509.294-.509.294-.509.294-.509-19.7-11.375Z" fill="#d3d3d3"/>
        <path id="패스_6849" data-name="패스 6849" d="M125.694,2285.346l19.7,11.374a1.011,1.011,0,0,1,.37,1.38l-1.47,2.546a1.012,1.012,0,0,1-1.38.37l-19.7-11.375a1.011,1.011,0,0,1-.37-1.38l1.47-2.545A1.009,1.009,0,0,1,125.694,2285.346Zm17.816,12.619L125.558,2287.6l-.459.8,17.952,10.365Z" fill="#231815"/>
      </g>
    </g>
  </g>
</svg>
