<svg xmlns="http://www.w3.org/2000/svg" width="52.32" height="41.961" viewBox="0 0 52.32 41.961">
    <g data-name="그룹 5918">
        <path data-name="패스 6891" d="M545.342 2299.857a4.573 4.573 0 0 0-5.857-1.582c-1.444.951-2.448 1.982-4.523 2.324-5.255.864-9.963-1.056-10.516-4.289-.325-1.9.855-3.825 2.948-5.269a1.878 1.878 0 0 0-.829-3.408 31.826 31.826 0 0 0-4.706-.347c-13.976 0-25.306 8.983-25.306 20.064s11.33 20.063 25.306 20.063 25.306-8.982 25.306-20.063a16.456 16.456 0 0 0-1.823-7.493zm-3.276 8.6a8.587 8.587 0 0 1-5.031 2.108c-3.764.45-6.5-1.007-5.737-2.972.805-2.078 3.548-.778 5.544-2.472 4.782-4.056 8.075.452 5.224 3.34z" style="fill:#e2aa77" transform="translate(-495.699 -2286.369)"/>
        <g data-name="그룹 5914" transform="translate(-495.699 -2286.369)">
            <ellipse data-name="타원 17" cx="4.281" cy="3.94" rx="4.281" ry="3.94" transform="translate(509.666 2293.483)" style="fill:#f56252"/>
            <path data-name="패스 6892" d="M513.947 2302.279a4.864 4.864 0 1 1 5.135-4.857 5.008 5.008 0 0 1-5.135 4.857zm0-7.879a3.046 3.046 0 1 0 3.427 3.022 3.248 3.248 0 0 0-3.427-3.022z" style="fill:#231815"/>
        </g>
        <g data-name="그룹 5915" transform="translate(-495.699 -2286.369)">
            <ellipse data-name="타원 18" cx="4.281" cy="3.94" rx="4.281" ry="3.94" transform="translate(501.474 2302.772)" style="fill:#6bc9ea"/>
            <path data-name="패스 6893" d="M505.754 2311.568a4.864 4.864 0 1 1 5.135-4.856 5.006 5.006 0 0 1-5.135 4.856zm0-7.879a3.047 3.047 0 1 0 3.427 3.023 3.247 3.247 0 0 0-3.427-3.023z" style="fill:#231815"/>
        </g>
        <g data-name="그룹 5916" transform="translate(-495.699 -2286.369)">
            <ellipse data-name="타원 19" cx="4.281" cy="3.94" rx="4.281" ry="3.94" transform="translate(509.986 2312.062)" style="fill:#ffd991"/>
            <path data-name="패스 6894" d="M514.267 2320.858A4.864 4.864 0 1 1 519.4 2316a5.007 5.007 0 0 1-5.133 4.858zm0-7.879a3.046 3.046 0 1 0 3.426 3.022 3.247 3.247 0 0 0-3.426-3.022z" style="fill:#231815"/>
        </g>
        <g data-name="그룹 5917" transform="translate(-495.699 -2286.369)">
            <ellipse data-name="타원 20" cx="4.281" cy="3.94" rx="4.281" ry="3.94" transform="translate(523.253 2314.131)" style="fill:#62cc6f"/>
            <path data-name="패스 6895" d="M527.534 2322.927a4.864 4.864 0 1 1 5.135-4.857 5.008 5.008 0 0 1-5.135 4.857zm0-7.88a3.047 3.047 0 1 0 3.427 3.023 3.247 3.247 0 0 0-3.427-3.023z" style="fill:#231815"/>
        </g>
        <path data-name="패스 6896" d="M544.592 2300.3s5.2 9.829-7.447 19.645-31.863 2.069-31.863 2.069 9.3 6.19 16.577 5.4 16.34-4.5 20.408-8.2a16.7 16.7 0 0 0 4.758-13.979c-.934-5.817-2.433-4.935-2.433-4.935z" style="fill:#ba8b63" transform="translate(-495.699 -2286.369)"/>
        <path data-name="패스 6897" d="M521.859 2328.33a29.616 29.616 0 0 1-18.4-6.056c-5-3.966-7.759-9.267-7.759-14.924s2.756-10.958 7.759-14.925a29.622 29.622 0 0 1 18.4-6.056 32.75 32.75 0 0 1 4.824.356 2.812 2.812 0 0 1 1.172 5.088c-1.854 1.278-2.814 2.9-2.569 4.332.462 2.7 4.834 4.323 9.547 3.547a7.239 7.239 0 0 0 3.3-1.566c.288-.206.586-.42.909-.633a5.375 5.375 0 0 1 7.052 1.925 17.363 17.363 0 0 1 1.928 7.932c0 5.657-2.755 10.958-7.758 14.924a29.619 29.619 0 0 1-18.405 6.056zm0-40.127c-13.483 0-24.452 8.589-24.452 19.147s10.969 19.147 24.452 19.147 24.452-8.59 24.452-19.147a15.452 15.452 0 0 0-1.719-7.054 3.787 3.787 0 0 0-4.66-1.24c-.295.2-.579.4-.854.595a8.8 8.8 0 0 1-3.986 1.854 16.464 16.464 0 0 1-2.66.221c-4.611 0-8.282-2.069-8.826-5.25-.38-2.224.832-4.486 3.326-6.206a.89.89 0 0 0 .4-.938 1.015 1.015 0 0 0-.889-.791 31.208 31.208 0 0 0-4.584-.341zm13.853 23.364c-2.247 0-4.1-.678-4.926-1.854a2.57 2.57 0 0 1-.277-2.468c.625-1.614 2.026-1.8 3.261-1.973a4.679 4.679 0 0 0 2.542-.867c3.014-2.557 5.636-2.12 6.9-.552a3.939 3.939 0 0 1-.558 5.275 9.3 9.3 0 0 1-5.523 2.353 11.955 11.955 0 0 1-1.419.086zm4.754-7.137a5.018 5.018 0 0 0-3.094 1.414 6.138 6.138 0 0 1-3.387 1.247c-1.2.164-1.675.28-1.9.858a.635.635 0 0 0 .067.663c.518.742 2.329 1.34 4.788 1.046a7.775 7.775 0 0 0 4.539-1.864l.586.667-.586-.667a2.049 2.049 0 0 0 .439-2.742 1.807 1.807 0 0 0-1.452-.622z" style="fill:#231815" transform="translate(-495.699 -2286.369)"/>
    </g>
</svg>
