<svg xmlns="http://www.w3.org/2000/svg" width="46.383" height="61.327" viewBox="0 0 46.383 61.327">
  <g id="그룹_5897" data-name="그룹 5897" transform="translate(-180.368 -2276.686)">
    <g id="그룹_5885" data-name="그룹 5885">
      <path id="패스_6861" data-name="패스 6861" d="M216.527,2279.626l-3.46,2.3-2.605,2.72-1.5,2.6-1.723,1L204.7,2291.5l-1.54,2.667-2.06,2.2-1.586,2.833-.826,1.362.489,1.031,6.735,3.888,5.514,3.463,5.037,2.249,2.738-4.742,2.013-4.707,1.939-4.8.923-2.711.963-3.493.908-3.49-.137-3.51-.491-2.643-1.964-2.554-1.852-.523-3.541.837-1.432.765" fill="#fdd7aa"/>
    </g>
    <g id="그룹_5886" data-name="그룹 5886">
      <path id="패스_6862" data-name="패스 6862" d="M223.166,2278.986s.021,14.739-13.752,28.516h0l2.01,1.44,2.732,1.3,1.443.833.862.118,1.556-2.865,1.718-3.4,1.844-2.6.955-3.754,1.239-3.409.583-1.954.352-1.721.283-2.585.766-2.491-.534-2.323-.755-4.09Z" fill="#ddbb97"/>
    </g>
    <g id="그룹_5887" data-name="그룹 5887">
      <path id="패스_6863" data-name="패스 6863" d="M194.581,2308.361l2.4,1.85,3.786,1.737,4.224,2.392,4.119,2.388,2.342,1.342.265,1.573.106,3.6-1.3,2.364-1.19,2.52-2.835,3.911-3.144,2.562-1.92,1.774-1.466,1.107-2.076.174-2.113-.724-2.87-.82-2.164-1.25-2.082-1.2L185.6,2331.9l-2.534-1.642-1.282-2.007-.378-2.119.792-1.782,1.384-1.2,2.388-1.575.767-1.951,1.707-2.48,1.193-2.133L191,2312.7l1.408-1.969,2.176-2.373" fill="#6d6d6d"/>
    </g>
    <g id="그룹_5888" data-name="그룹 5888">
      <path id="패스_6864" data-name="패스 6864" d="M205.043,2314.209s4.291,13.21-12.333,21.813l8.216,1.167,2.97-2.985,2.97-3.078,2.468-3.707,1.71-4.8.586-4.219-3.719-2.87-2.5-1.042Z" fill="#474747"/>
    </g>
    <g id="그룹_5889" data-name="그룹 5889">
      <path id="패스_6865" data-name="패스 6865" d="M218.083,2312.266" fill="none" stroke="#000" stroke-miterlimit="10" stroke-width="10"/>
    </g>
    <g id="그룹_5890" data-name="그룹 5890">
      <path id="패스_6866" data-name="패스 6866" d="M196.866,2301.184l.519-.879c10.056-17.03,20.659-26.255,26.385-22.956l-.5.875.5-.875,0,0c5.722,3.3,3.035,17.088-6.688,34.306l-.5.887Zm25.9-22.084h0c-3.736-2.152-13.053,4.622-23.114,21.356l16.178,9.32C225.288,2292.7,226.5,2281.256,222.764,2279.1Z" fill="#231815"/>
    </g>
    <g id="그룹_5891" data-name="그룹 5891">
      <path id="패스_6867" data-name="패스 6867" d="M212.47,2317.924l-18.205-10.488a1.764,1.764,0,0,1-.624-2.411l2.075-3.595a1.77,1.77,0,0,1,2.4-.667l18.205,10.488a1.765,1.765,0,0,1,.624,2.411l-2.076,3.595A1.769,1.769,0,0,1,212.47,2317.924Z" fill="#d6d6d6"/>
      <path id="패스_6868" data-name="패스 6868" d="M193.758,2308.31a2.721,2.721,0,0,1-1.272-1.664,2.778,2.778,0,0,1,.28-2.126l2.076-3.595a2.778,2.778,0,0,1,3.781-1.038l18.205,10.489h0a2.721,2.721,0,0,1,1.272,1.664,2.779,2.779,0,0,1-.28,2.126l-2.076,3.595a2.779,2.779,0,0,1-3.781,1.038l-18.206-10.489Zm22.063,3.816h0l-18.206-10.488a.764.764,0,0,0-1.023.3l-2.076,3.594a.776.776,0,0,0-.078.592.714.714,0,0,0,.331.439h0l18.205,10.488a.765.765,0,0,0,1.024-.3l2.076-3.594a.776.776,0,0,0,.078-.592A.717.717,0,0,0,215.821,2312.126Z" fill="#231815"/>
    </g>
    <g id="그룹_5892" data-name="그룹 5892">
      <path id="패스_6869" data-name="패스 6869" d="M216.266,2311.217" fill="none" stroke="#000" stroke-miterlimit="10" stroke-width="10"/>
    </g>
    <g id="그룹_5893" data-name="그룹 5893">
      <path id="패스_6870" data-name="패스 6870" d="M187.415,2333.85c-2.532-1.462-5.4-3.533-6.54-5.882a4.438,4.438,0,0,1,1.32-5.636,29.169,29.169,0,0,0,6.258-7.933h0c.364-.713,3.627-6.973,6.2-7.407a1.6,1.6,0,0,1,1.282.311l16.437,9.417.082.466c.89,5.029-2.351,11.264-5.4,15.075-2.756,3.448-5.755,5.582-8.039,5.726-1.648.245-5.761-1.2-9.028-2.778C189.246,2334.85,188.354,2334.392,187.415,2333.85Zm2.845-18.553h0a30.829,30.829,0,0,1-6.747,8.564,2.425,2.425,0,0,0-.821,3.226c.943,1.95,3.921,4.247,8.171,6.3,4.048,1.957,7.212,2.722,7.847,2.6l.07-.013.072,0c1.67-.079,4.268-2.031,6.62-4.973,2.686-3.362,5.553-8.712,5.053-13.006l-15.656-8.969C194.15,2309.362,192.175,2311.549,190.26,2315.3Z" fill="#231815"/>
    </g>
    <g id="그룹_5894" data-name="그룹 5894">
      <path id="패스_6871" data-name="패스 6871" d="M183.581,2330.077a.777.777,0,0,1,.161-1.416,11.636,11.636,0,0,0,5.977-5.5.778.778,0,0,1,1.055-.309l.016.009a.778.778,0,0,1,.293,1.046,12.956,12.956,0,0,1-6.888,6.242A.778.778,0,0,1,183.581,2330.077Z"/>
    </g>
    <g id="그룹_5895" data-name="그룹 5895">
      <path id="패스_6872" data-name="패스 6872" d="M187.736,2333.813a.777.777,0,0,1,.186-1.423c.191-.053,4.484-1.3,6.723-6.821a.777.777,0,0,1,1.44.584c-2.545,6.279-7.548,7.681-7.759,7.738A.779.779,0,0,1,187.736,2333.813Z"/>
    </g>
    <g id="그룹_5896" data-name="그룹 5896">
      <path id="패스_6873" data-name="패스 6873" d="M193.326,2336.361a.77.77,0,0,1-.354-.443.778.778,0,0,1,.51-.971c.159-.051,3.809-1.281,5.729-6.735a.777.777,0,0,1,1.466.516c-2.2,6.236-6.549,7.646-6.733,7.7A.778.778,0,0,1,193.326,2336.361Z"/>
    </g>
  </g>
</svg>
